<?xml version="1.0" encoding="utf-8"?>
<!-- Generator: Adobe Illustrator 23.0.6, SVG Export Plug-In . SVG Version: 6.00 Build 0)  -->
<svg version="1.1" id="圖層_1" xmlns="http://www.w3.org/2000/svg" xmlns:xlink="http://www.w3.org/1999/xlink" x="0px" y="0px"
	 viewBox="0 0 70 55" style="enable-background:new 0 0 70 55;" xml:space="preserve">
<style type="text/css">
	.st0{fill:#231815;}
</style>
<path class="st0" d="M56,11.9c-2.9,2.1-5.7,4.2-8.4,6.5c-4.8,3.9-9.4,8.1-13.7,12.5c-0.5,0.5-1,1-1.4,1.5c-1.1,2.1-2.1,4.1-3.2,6.2
	c-1.2,2.3-2.4,4.6-4.5,6.4c-1.4,1.2-3.6,0-3.2-1.7c0.7-3,2.2-5.9,4.1-8.5c1.1-1.5,2.3-2.9,3.6-4.3c0.2-0.5,0.5-0.9,0.7-1.4
	c1.4-2.8,2.8-5.6,4.1-8.3c-0.8,0.6-1.6,1.3-2.4,1.9c-0.8,0.7-1.6,1.3-2.7,1.7c-2.3,0.8-4.9-0.4-5-2.7c-0.1-2.1,0.6-4.5,1.4-6.5
	c0.4-0.9,1.3-1.5,2.4-1.2c0.9,0.2,1.7,1.2,1.3,2.1c-0.6,1.5-1.1,3.2-1.2,4.8c0,0,0,0.1,0,0.1c0.4-0.3,1.1-0.7,1.1-0.8
	c3-2.4,5.9-4.7,8.9-7.1c0.6-0.5,1.6-0.7,2.3-0.3c0.7,0.4,1.2,1.3,0.9,2c-1.2,2.6-2.4,5.2-3.7,7.7c0.3-0.3,0.6-0.6,0.9-0.8
	c4.8-4.3,9.8-8.3,15-12.1c0.8-0.6,1.9-0.7,2.7,0C56.6,10.1,56.8,11.3,56,11.9z"/>
</svg>
